ffmpeg started on 2026-01-13 at 09:47:24
Report written to "D:\Convert\FFMetrics\reports\ssim_report-6.txt"
Log level: 32
Command line:
ffmpeg -hide_banner -nostdin -r 24000/1001 -i "F:\\Convert\\files\\[DC] Make Heroine ga Oosugiru - 07_Telegram_HEVC(105).mkv" -r 24000/1001 -i "F:\\Convert\\files\\[DC] Make Heroine ga Oosugiru - 07_Telegram.mp4" -lavfi "[0:v]settb=AVTB,setpts=PTS-STARTPTS,format=pix_fmts=yuv420p10le,fps=24000/1001,scale=1920:1080:flags=lanczos:param0=3:out_range=limited:out_color_matrix=bt709:out_chroma_loc=left,setsar=1/1,setdar=(1920/1080)*(1/1),colorspace=format=yuv420p10:range=tv:primaries=bt709:trc=bt709:space=bt709:fast=0[main];[1:v]settb=AVTB,setpts=PTS-STARTPTS,format=pix_fmts=yuv420p,fps=24000/1001,scale=1920:1080:flags=lanczos:param0=3:out_range=limited:out_color_matrix=bt709:out_chroma_loc=left,setsar=1.000,setdar=1.778,colorspace=format=yuv420p:range=tv:primaries=bt709:trc=bt709:space=bt709:fast=0[ref];[main][ref]ssim=eof_action=endall:stats_file='D\\:/Convert/FFMetrics/logs/ssim_logfile-6.txt'" -f null -
Input #0, matroska,webm, from 'F:\Convert\files\[DC] Make Heroine ga Oosugiru - 07_Telegram_HEVC(105).mkv':
  Metadata:
    COMPATIBLE_BRANDS: isomiso2avc1mp41
    MAJOR_BRAND     : isom
    MINOR_VERSION   : 512
    ENCODER         : Lavf61.7.100
  Duration: 00:24:06.79, start: -0.021000, bitrate: 965 kb/s
  Stream #0:0: Video: hevc (Main 10), yuv420p10le(tv, bt709, progressive), 1920x1080 [SAR 1:1 DAR 16:9], 23.98 fps, 23.98 tbr, 1k tbn (default)
      Metadata:
        HANDLER_NAME    : VideoHandler
        VENDOR_ID       : [0][0][0][0]
        ENCODER         : Lavc61.19.100 libx265
        BPS             : 768438
        DURATION        : 00:24:06.569708333
        NUMBER_OF_FRAMES: 34683
        NUMBER_OF_BYTES : 138950000
        _STATISTICS_WRITING_APP: mkvpropedit v94.0 ('Initiate') 64-bit
        _STATISTICS_WRITING_DATE_UTC: 2026-01-12 12:23:33
        _STATISTICS_TAGS: BPS DURATION NUMBER_OF_FRAMES NUMBER_OF_BYTES
  Stream #0:1: Audio: aac (LC), 48000 Hz, stereo, fltp (default)
      Metadata:
        HANDLER_NAME    : SoundHandler
        VENDOR_ID       : [0][0][0][0]
        ENCODER         : Lavc61.19.100 aac
        BPS             : 193194
        DURATION        : 00:24:06.784000000
        NUMBER_OF_FRAMES: 67819
        NUMBER_OF_BYTES : 34938755
        _STATISTICS_WRITING_APP: mkvpropedit v94.0 ('Initiate') 64-bit
        _STATISTICS_WRITING_DATE_UTC: 2026-01-12 12:23:33
        _STATISTICS_TAGS: BPS DURATION NUMBER_OF_FRAMES NUMBER_OF_BYTES
Input #1, mov,mp4,m4a,3gp,3g2,mj2, from 'F:\Convert\files\[DC] Make Heroine ga Oosugiru - 07_Telegram.mp4':
  Metadata:
    major_brand     : isom
    minor_version   : 512
    compatible_brands: isomiso2avc1mp41
    encoder         : Lavf60.16.100
  Duration: 00:24:06.74, start: 0.000000, bitrate: 3764 kb/s
  Stream #1:0[0x1](und): Video: h264 (High) (avc1 / 0x31637661), yuv420p(tv, bt709, progressive), 1920x1080 [SAR 1:1 DAR 16:9], 3616 kb/s, 23.98 fps, 23.98 tbr, 24k tbn (default)
      Metadata:
        handler_name    : VideoHandler
        vendor_id       : [0][0][0][0]
        encoder         : Lavc60.31.102 h264_qsv
  Stream #1:1[0x2](und): Audio: aac (HE-AACv2) (mp4a / 0x6134706D), 48000 Hz, stereo, fltp, 144 kb/s (default)
      Metadata:
        handler_name    : SoundHandler
        vendor_id       : [0][0][0][0]
Stream mapping:
  Stream #0:0 (hevc) -> settb:default
  Stream #1:0 (h264) -> settb:default
  ssim:default -> Stream #0:0 (wrapped_avframe)
  Stream #0:1 -> #0:1 (aac (native) -> pcm_s16le (native))
Output #0, null, to 'pipe:':
  Metadata:
    COMPATIBLE_BRANDS: isomiso2avc1mp41
    MAJOR_BRAND     : isom
    MINOR_VERSION   : 512
    encoder         : Lavf61.7.100
  Stream #0:0: Video: wrapped_avframe, yuv420p10le(tv, bt709, progressive), 1920x1080 [SAR 1:1 DAR 16:9], q=2-31, 200 kb/s, 23.98 fps, 23.98 tbn
      Metadata:
        encoder         : Lavc61.19.100 wrapped_avframe
  Stream #0:1: Audio: pcm_s16le, 48000 Hz, stereo, s16, 1536 kb/s (default)
      Metadata:
        HANDLER_NAME    : SoundHandler
        VENDOR_ID       : [0][0][0][0]
        _STATISTICS_TAGS: BPS DURATION NUMBER_OF_FRAMES NUMBER_OF_BYTES
        BPS             : 193194
        DURATION        : 00:24:06.784000000
        NUMBER_OF_FRAMES: 67819
        NUMBER_OF_BYTES : 34938755
        _STATISTICS_WRITING_APP: mkvpropedit v94.0 ('Initiate') 64-bit
        _STATISTICS_WRITING_DATE_UTC: 2026-01-12 12:23:33
        encoder         : Lavc61.19.100 pcm_s16le
frame=  109 fps=0.0 q=-0.0 size=N/A time=00:00:04.54 bitrate=N/A speed=8.75x    frame=  294 fps=283 q=-0.0 size=N/A time=00:00:12.26 bitrate=N/A speed=11.8x    frame=  482 fps=311 q=-0.0 size=N/A time=00:00:20.10 bitrate=N/A speed=  13x    frame=  678 fps=327 q=-0.0 size=N/A time=00:00:28.27 bitrate=N/A speed=13.6x    frame=  853 fps=331 q=-0.0 size=N/A time=00:00:35.57 bitrate=N/A speed=13.8x    frame=  988 fps=318 q=-0.0 size=N/A time=00:00:41.20 bitrate=N/A speed=13.3x    frame= 1133 fps=314 q=-0.0 size=N/A time=00:00:47.25 bitrate=N/A speed=13.1x    frame= 1292 fps=312 q=-0.0 size=N/A time=00:00:53.88 bitrate=N/A speed=  13x    frame= 1448 fps=312 q=-0.0 size=N/A time=00:01:00.39 bitrate=N/A speed=  13x    frame= 1587 fps=308 q=-0.0 size=N/A time=00:01:06.19 bitrate=N/A speed=12.8x    frame= 1753 fps=308 q=-0.0 size=N/A time=00:01:13.11 bitrate=N/A speed=12.9x    frame= 1916 fps=309 q=-0.0 size=N/A time=00:01:19.91 bitrate=N/A speed=12.9x    frame= 2060 fps=307 q=-0.0 size=N/A time=00:01:25.91 bitrate=N/A speed=12.8x    frame= 2184 fps=302 q=-0.0 size=N/A time=00:01:31.09 bitrate=N/A speed=12.6x    frame= 2345 fps=303 q=-0.0 size=N/A time=00:01:37.80 bitrate=N/A speed=12.6x    frame= 2477 fps=300 q=-0.0 size=N/A time=00:01:43.31 bitrate=N/A speed=12.5x    frame= 2619 fps=298 q=-0.0 size=N/A time=00:01:49.23 bitrate=N/A speed=12.4x    frame= 2787 fps=300 q=-0.0 size=N/A time=00:01:56.24 bitrate=N/A speed=12.5x    frame= 2944 fps=300 q=-0.0 size=N/A time=00:02:02.78 bitrate=N/A speed=12.5x    frame= 3123 fps=303 q=-0.0 size=N/A time=00:02:10.25 bitrate=N/A speed=12.6x    frame= 3302 fps=305 q=-0.0 size=N/A time=00:02:17.72 bitrate=N/A speed=12.7x    frame= 3482 fps=307 q=-0.0 size=N/A time=00:02:25.22 bitrate=N/A speed=12.8x    frame= 3662 fps=309 q=-0.0 size=N/A time=00:02:32.73 bitrate=N/A speed=12.9x    frame= 3843 fps=310 q=-0.0 size=N/A time=00:02:40.28 bitrate=N/A speed=12.9x    frame= 4038 fps=313 q=-0.0 size=N/A time=00:02:48.41 bitrate=N/A speed=13.1x    frame= 4226 fps=315 q=-0.0 size=N/A time=00:02:56.25 bitrate=N/A speed=13.1x    frame= 4402 fps=316 q=-0.0 size=N/A time=00:03:03.60 bitrate=N/A speed=13.2x    frame= 4565 fps=316 q=-0.0 size=N/A time=00:03:10.39 bitrate=N/A speed=13.2x    frame= 4745 fps=317 q=-0.0 size=N/A time=00:03:17.90 bitrate=N/A speed=13.2x    frame= 4918 fps=318 q=-0.0 size=N/A time=00:03:25.12 bitrate=N/A speed=13.3x    frame= 5114 fps=320 q=-0.0 size=N/A time=00:03:33.29 bitrate=N/A speed=13.3x    frame= 5287 fps=320 q=-0.0 size=N/A time=00:03:40.51 bitrate=N/A speed=13.4x    frame= 5449 fps=320 q=-0.0 size=N/A time=00:03:47.26 bitrate=N/A speed=13.3x    frame= 5639 fps=322 q=-0.0 size=N/A time=00:03:55.19 bitrate=N/A speed=13.4x    frame= 5819 fps=322 q=-0.0 size=N/A time=00:04:02.70 bitrate=N/A speed=13.4x    frame= 6015 fps=324 q=-0.0 size=N/A time=00:04:10.87 bitrate=N/A speed=13.5x    frame= 6205 fps=325 q=-0.0 size=N/A time=00:04:18.80 bitrate=N/A speed=13.6x    frame= 6403 fps=327 q=-0.0 size=N/A time=00:04:27.05 bitrate=N/A speed=13.6x    frame= 6591 fps=328 q=-0.0 size=N/A time=00:04:34.89 bitrate=N/A speed=13.7x    frame= 6780 fps=329 q=-0.0 size=N/A time=00:04:42.78 bitrate=N/A speed=13.7x    frame= 6975 fps=330 q=-0.0 size=N/A time=00:04:50.91 bitrate=N/A speed=13.8x    frame= 7148 fps=330 q=-0.0 size=N/A time=00:04:58.13 bitrate=N/A speed=13.8x    frame= 7330 fps=331 q=-0.0 size=N/A time=00:05:05.72 bitrate=N/A speed=13.8x    frame= 7510 fps=331 q=-0.0 size=N/A time=00:05:13.22 bitrate=N/A speed=13.8x    frame= 7676 fps=331 q=-0.0 size=N/A time=00:05:20.15 bitrate=N/A speed=13.8x    frame= 7847 fps=331 q=-0.0 size=N/A time=00:05:27.28 bitrate=N/A speed=13.8x    frame= 8014 fps=331 q=-0.0 size=N/A time=00:05:34.25 bitrate=N/A speed=13.8x    frame= 8173 fps=330 q=-0.0 size=N/A time=00:05:40.88 bitrate=N/A speed=13.8x    frame= 8344 fps=330 q=-0.0 size=N/A time=00:05:48.01 bitrate=N/A speed=13.8x    frame= 8524 fps=331 q=-0.0 size=N/A time=00:05:55.52 bitrate=N/A speed=13.8x    frame= 8707 fps=331 q=-0.0 size=N/A time=00:06:03.15 bitrate=N/A speed=13.8x    frame= 8895 fps=332 q=-0.0 size=N/A time=00:06:10.99 bitrate=N/A speed=13.8x    frame= 9071 fps=332 q=-0.0 size=N/A time=00:06:18.33 bitrate=N/A speed=13.8x    frame= 9260 fps=333 q=-0.0 size=N/A time=00:06:26.21 bitrate=N/A speed=13.9x    frame= 9432 fps=332 q=-0.0 size=N/A time=00:06:33.39 bitrate=N/A speed=13.9x    frame= 9611 fps=333 q=-0.0 size=N/A time=00:06:40.85 bitrate=N/A speed=13.9x    frame= 9793 fps=333 q=-0.0 size=N/A time=00:06:48.44 bitrate=N/A speed=13.9x    frame= 9970 fps=333 q=-0.0 size=N/A time=00:06:55.83 bitrate=N/A speed=13.9x    frame=10149 fps=334 q=-0.0 size=N/A time=00:07:03.29 bitrate=N/A speed=13.9x    frame=10334 fps=334 q=-0.0 size=N/A time=00:07:11.01 bitrate=N/A speed=13.9x    frame=10517 fps=334 q=-0.0 size=N/A time=00:07:18.64 bitrate=N/A speed=13.9x    frame=10698 fps=335 q=-0.0 size=N/A time=00:07:26.19 bitrate=N/A speed=  14x    frame=10878 fps=335 q=-0.0 size=N/A time=00:07:33.70 bitrate=N/A speed=  14x    frame=11053 fps=335 q=-0.0 size=N/A time=00:07:41.00 bitrate=N/A speed=  14x    frame=11222 fps=335 q=-0.0 size=N/A time=00:07:48.05 bitrate=N/A speed=  14x    frame=11401 fps=335 q=-0.0 size=N/A time=00:07:55.51 bitrate=N/A speed=  14x    frame=11559 fps=334 q=-0.0 size=N/A time=00:08:02.10 bitrate=N/A speed=13.9x    frame=11716 fps=334 q=-0.0 size=N/A time=00:08:08.65 bitrate=N/A speed=13.9x    frame=11861 fps=333 q=-0.0 size=N/A time=00:08:14.70 bitrate=N/A speed=13.9x    frame=12042 fps=333 q=-0.0 size=N/A time=00:08:22.25 bitrate=N/A speed=13.9x    frame=12210 fps=333 q=-0.0 size=N/A time=00:08:29.25 bitrate=N/A speed=13.9x    frame=12382 fps=333 q=-0.0 size=N/A time=00:08:36.43 bitrate=N/A speed=13.9x    frame=12555 fps=333 q=-0.0 size=N/A time=00:08:43.64 bitrate=N/A speed=13.9x    frame=12734 fps=334 q=-0.0 size=N/A time=00:08:51.11 bitrate=N/A speed=13.9x    frame=12907 fps=334 q=-0.0 size=N/A time=00:08:58.32 bitrate=N/A speed=13.9x    frame=13104 fps=334 q=-0.0 size=N/A time=00:09:06.54 bitrate=N/A speed=13.9x    frame=13292 fps=335 q=-0.0 size=N/A time=00:09:14.38 bitrate=N/A speed=  14x    frame=13469 fps=335 q=-0.0 size=N/A time=00:09:21.76 bitrate=N/A speed=  14x    frame=13649 fps=335 q=-0.0 size=N/A time=00:09:29.27 bitrate=N/A speed=  14x    frame=13825 fps=335 q=-0.0 size=N/A time=00:09:36.61 bitrate=N/A speed=  14x    frame=14006 fps=335 q=-0.0 size=N/A time=00:09:44.16 bitrate=N/A speed=  14x    frame=14182 fps=335 q=-0.0 size=N/A time=00:09:51.50 bitrate=N/A speed=  14x    frame=14367 fps=336 q=-0.0 size=N/A time=00:09:59.22 bitrate=N/A speed=  14x    frame=14526 fps=335 q=-0.0 size=N/A time=00:10:05.85 bitrate=N/A speed=  14x    frame=14707 fps=335 q=-0.0 size=N/A time=00:10:13.40 bitrate=N/A speed=  14x    frame=14892 fps=336 q=-0.0 size=N/A time=00:10:21.12 bitrate=N/A speed=  14x    frame=15070 fps=336 q=-0.0 size=N/A time=00:10:28.54 bitrate=N/A speed=  14x    frame=15216 fps=335 q=-0.0 size=N/A time=00:10:34.63 bitrate=N/A speed=  14x    frame=15391 fps=335 q=-0.0 size=N/A time=00:10:41.93 bitrate=N/A speed=  14x    frame=15554 fps=335 q=-0.0 size=N/A time=00:10:48.73 bitrate=N/A speed=  14x    frame=15740 fps=335 q=-0.0 size=N/A time=00:10:56.48 bitrate=N/A speed=  14x    frame=15928 fps=335 q=-0.0 size=N/A time=00:11:04.33 bitrate=N/A speed=  14x    frame=16099 fps=335 q=-0.0 size=N/A time=00:11:11.46 bitrate=N/A speed=  14x    frame=16293 fps=336 q=-0.0 size=N/A time=00:11:19.55 bitrate=N/A speed=  14x    frame=16482 fps=336 q=-0.0 size=N/A time=00:11:27.43 bitrate=N/A speed=  14x    frame=16666 fps=336 q=-0.0 size=N/A time=00:11:35.11 bitrate=N/A speed=  14x    frame=16847 fps=337 q=-0.0 size=N/A time=00:11:42.66 bitrate=N/A speed=  14x    frame=17030 fps=337 q=-0.0 size=N/A time=00:11:50.29 bitrate=N/A speed=  14x    frame=17210 fps=337 q=-0.0 size=N/A time=00:11:57.80 bitrate=N/A speed=  14x    frame=17373 fps=337 q=-0.0 size=N/A time=00:12:04.59 bitrate=N/A speed=  14x    frame=17534 fps=336 q=-0.0 size=N/A time=00:12:11.31 bitrate=N/A speed=  14x    frame=17702 fps=336 q=-0.0 size=N/A time=00:12:18.32 bitrate=N/A speed=  14x    frame=17889 fps=336 q=-0.0 size=N/A time=00:12:26.12 bitrate=N/A speed=  14x    frame=18069 fps=337 q=-0.0 size=N/A time=00:12:33.62 bitrate=N/A speed=  14x    frame=18238 fps=337 q=-0.0 size=N/A time=00:12:40.67 bitrate=N/A speed=  14x    frame=18407 fps=336 q=-0.0 size=N/A time=00:12:47.72 bitrate=N/A speed=  14x    frame=18590 fps=337 q=-0.0 size=N/A time=00:12:55.35 bitrate=N/A speed=  14x    frame=18760 fps=337 q=-0.0 size=N/A time=00:13:02.44 bitrate=N/A speed=  14x    frame=18950 fps=337 q=-0.0 size=N/A time=00:13:10.37 bitrate=N/A speed=14.1x    frame=19144 fps=337 q=-0.0 size=N/A time=00:13:18.46 bitrate=N/A speed=14.1x    frame=19332 fps=337 q=-0.0 size=N/A time=00:13:26.30 bitrate=N/A speed=14.1x    frame=19527 fps=338 q=-0.0 size=N/A time=00:13:34.43 bitrate=N/A speed=14.1x    frame=19718 fps=338 q=-0.0 size=N/A time=00:13:42.40 bitrate=N/A speed=14.1x    frame=19917 fps=339 q=-0.0 size=N/A time=00:13:50.70 bitrate=N/A speed=14.1x    frame=20104 fps=339 q=-0.0 size=N/A time=00:13:58.50 bitrate=N/A speed=14.1x    frame=20306 fps=339 q=-0.0 size=N/A time=00:14:06.92 bitrate=N/A speed=14.1x    frame=20486 fps=339 q=-0.0 size=N/A time=00:14:14.43 bitrate=N/A speed=14.2x    frame=20661 fps=339 q=-0.0 size=N/A time=00:14:21.73 bitrate=N/A speed=14.2x    frame=20864 fps=340 q=-0.0 size=N/A time=00:14:30.20 bitrate=N/A speed=14.2x    frame=21054 fps=340 q=-0.0 size=N/A time=00:14:38.12 bitrate=N/A speed=14.2x    frame=21235 fps=340 q=-0.0 size=N/A time=00:14:45.67 bitrate=N/A speed=14.2x    frame=21430 fps=340 q=-0.0 size=N/A time=00:14:53.80 bitrate=N/A speed=14.2x    frame=21621 fps=341 q=-0.0 size=N/A time=00:15:01.77 bitrate=N/A speed=14.2x    frame=21822 fps=341 q=-0.0 size=N/A time=00:15:10.15 bitrate=N/A speed=14.2x    frame=22011 fps=341 q=-0.0 size=N/A time=00:15:18.04 bitrate=N/A speed=14.2x    frame=22192 fps=341 q=-0.0 size=N/A time=00:15:25.59 bitrate=N/A speed=14.2x    frame=22377 fps=341 q=-0.0 size=N/A time=00:15:33.30 bitrate=N/A speed=14.2x    frame=22575 fps=342 q=-0.0 size=N/A time=00:15:41.56 bitrate=N/A speed=14.3x    frame=22742 fps=342 q=-0.0 size=N/A time=00:15:48.53 bitrate=N/A speed=14.2x    frame=22916 fps=342 q=-0.0 size=N/A time=00:15:55.78 bitrate=N/A speed=14.2x    frame=23102 fps=342 q=-0.0 size=N/A time=00:16:03.54 bitrate=N/A speed=14.3x    frame=23280 fps=342 q=-0.0 size=N/A time=00:16:10.97 bitrate=N/A speed=14.3x    frame=23455 fps=342 q=-0.0 size=N/A time=00:16:18.26 bitrate=N/A speed=14.3x    frame=23639 fps=342 q=-0.0 size=N/A time=00:16:25.94 bitrate=N/A speed=14.3x    frame=23830 fps=342 q=-0.0 size=N/A time=00:16:33.90 bitrate=N/A speed=14.3x    frame=24015 fps=342 q=-0.0 size=N/A time=00:16:41.62 bitrate=N/A speed=14.3x    frame=24196 fps=342 q=-0.0 size=N/A time=00:16:49.17 bitrate=N/A speed=14.3x    frame=24368 fps=342 q=-0.0 size=N/A time=00:16:56.34 bitrate=N/A speed=14.3x    frame=24553 fps=342 q=-0.0 size=N/A time=00:17:04.06 bitrate=N/A speed=14.3x    frame=24739 fps=342 q=-0.0 size=N/A time=00:17:11.82 bitrate=N/A speed=14.3x    frame=24927 fps=343 q=-0.0 size=N/A time=00:17:19.66 bitrate=N/A speed=14.3x    frame=25094 fps=343 q=-0.0 size=N/A time=00:17:26.62 bitrate=N/A speed=14.3x    frame=25278 fps=343 q=-0.0 size=N/A time=00:17:34.30 bitrate=N/A speed=14.3x    frame=25463 fps=343 q=-0.0 size=N/A time=00:17:42.01 bitrate=N/A speed=14.3x    frame=25649 fps=343 q=-0.0 size=N/A time=00:17:49.77 bitrate=N/A speed=14.3x    frame=25820 fps=343 q=-0.0 size=N/A time=00:17:56.90 bitrate=N/A speed=14.3x    frame=25993 fps=343 q=-0.0 size=N/A time=00:18:04.12 bitrate=N/A speed=14.3x    frame=26166 fps=343 q=-0.0 size=N/A time=00:18:11.34 bitrate=N/A speed=14.3x    frame=26353 fps=343 q=-0.0 size=N/A time=00:18:19.13 bitrate=N/A speed=14.3x    frame=26534 fps=343 q=-0.0 size=N/A time=00:18:26.68 bitrate=N/A speed=14.3x    frame=26711 fps=343 q=-0.0 size=N/A time=00:18:34.07 bitrate=N/A speed=14.3x    frame=26879 fps=343 q=-0.0 size=N/A time=00:18:41.07 bitrate=N/A speed=14.3x    frame=27054 fps=343 q=-0.0 size=N/A time=00:18:48.37 bitrate=N/A speed=14.3x    frame=27212 fps=342 q=-0.0 size=N/A time=00:18:54.96 bitrate=N/A speed=14.3x    frame=27374 fps=342 q=-0.0 size=N/A time=00:19:01.72 bitrate=N/A speed=14.3x    frame=27552 fps=342 q=-0.0 size=N/A time=00:19:09.14 bitrate=N/A speed=14.3x    frame=27733 fps=342 q=-0.0 size=N/A time=00:19:16.69 bitrate=N/A speed=14.3x    frame=27915 fps=342 q=-0.0 size=N/A time=00:19:24.28 bitrate=N/A speed=14.3x    frame=28101 fps=343 q=-0.0 size=N/A time=00:19:32.04 bitrate=N/A speed=14.3x    frame=28282 fps=343 q=-0.0 size=N/A time=00:19:39.59 bitrate=N/A speed=14.3x    frame=28454 fps=343 q=-0.0 size=N/A time=00:19:46.76 bitrate=N/A speed=14.3x    frame=28617 fps=342 q=-0.0 size=N/A time=00:19:53.56 bitrate=N/A speed=14.3x    frame=28781 fps=342 q=-0.0 size=N/A time=00:20:00.40 bitrate=N/A speed=14.3x    frame=28919 fps=342 q=-0.0 size=N/A time=00:20:06.16 bitrate=N/A speed=14.3x    frame=29080 fps=342 q=-0.0 size=N/A time=00:20:12.87 bitrate=N/A speed=14.2x    frame=29250 fps=342 q=-0.0 size=N/A time=00:20:19.96 bitrate=N/A speed=14.2x    frame=29402 fps=341 q=-0.0 size=N/A time=00:20:26.30 bitrate=N/A speed=14.2x    frame=29566 fps=341 q=-0.0 size=N/A time=00:20:33.14 bitrate=N/A speed=14.2x    frame=29731 fps=341 q=-0.0 size=N/A time=00:20:40.03 bitrate=N/A speed=14.2x    frame=29913 fps=341 q=-0.0 size=N/A time=00:20:47.62 bitrate=N/A speed=14.2x    frame=30077 fps=341 q=-0.0 size=N/A time=00:20:54.46 bitrate=N/A speed=14.2x    frame=30258 fps=341 q=-0.0 size=N/A time=00:21:02.01 bitrate=N/A speed=14.2x    frame=30445 fps=341 q=-0.0 size=N/A time=00:21:09.81 bitrate=N/A speed=14.2x    frame=30634 fps=341 q=-0.0 size=N/A time=00:21:17.69 bitrate=N/A speed=14.2x    frame=30819 fps=341 q=-0.0 size=N/A time=00:21:25.40 bitrate=N/A speed=14.2x    frame=30992 fps=341 q=-0.0 size=N/A time=00:21:32.62 bitrate=N/A speed=14.2x    frame=31166 fps=341 q=-0.0 size=N/A time=00:21:39.88 bitrate=N/A speed=14.2x    frame=31344 fps=341 q=-0.0 size=N/A time=00:21:47.30 bitrate=N/A speed=14.2x    frame=31514 fps=341 q=-0.0 size=N/A time=00:21:54.39 bitrate=N/A speed=14.2x    frame=31697 fps=341 q=-0.0 size=N/A time=00:22:02.02 bitrate=N/A speed=14.2x    frame=31857 fps=341 q=-0.0 size=N/A time=00:22:08.70 bitrate=N/A speed=14.2x    frame=32013 fps=341 q=-0.0 size=N/A time=00:22:15.20 bitrate=N/A speed=14.2x    frame=32195 fps=341 q=-0.0 size=N/A time=00:22:22.79 bitrate=N/A speed=14.2x    frame=32371 fps=341 q=-0.0 size=N/A time=00:22:30.14 bitrate=N/A speed=14.2x    frame=32542 fps=341 q=-0.0 size=N/A time=00:22:37.27 bitrate=N/A speed=14.2x    frame=32687 fps=341 q=-0.0 size=N/A time=00:22:43.32 bitrate=N/A speed=14.2x    frame=32838 fps=340 q=-0.0 size=N/A time=00:22:49.61 bitrate=N/A speed=14.2x    frame=33001 fps=340 q=-0.0 size=N/A time=00:22:56.41 bitrate=N/A speed=14.2x    frame=33176 fps=340 q=-0.0 size=N/A time=00:23:03.71 bitrate=N/A speed=14.2x    frame=33351 fps=340 q=-0.0 size=N/A time=00:23:11.01 bitrate=N/A speed=14.2x    frame=33501 fps=340 q=-0.0 size=N/A time=00:23:17.27 bitrate=N/A speed=14.2x    frame=33643 fps=340 q=-0.0 size=N/A time=00:23:23.19 bitrate=N/A speed=14.2x    frame=33777 fps=339 q=-0.0 size=N/A time=00:23:28.78 bitrate=N/A speed=14.1x    frame=33899 fps=339 q=-0.0 size=N/A time=00:23:33.87 bitrate=N/A speed=14.1x    frame=34069 fps=339 q=-0.0 size=N/A time=00:23:40.96 bitrate=N/A speed=14.1x    frame=34228 fps=339 q=-0.0 size=N/A time=00:23:47.59 bitrate=N/A speed=14.1x    frame=34365 fps=338 q=-0.0 size=N/A time=00:23:53.30 bitrate=N/A speed=14.1x    frame=34508 fps=338 q=-0.0 size=N/A time=00:23:59.27 bitrate=N/A speed=14.1x    [Parsed_ssim_16 @ 0000023655e96000] SSIM Y:0.994168 (22.341770) U:0.993998 (22.216994) V:0.993603 (21.939933) All:0.994045 (22.251449)
[out#0/null @ 00000236489d8a00] video:14903KiB audio:271276KiB subtitle:0KiB other streams:0KiB global headers:0KiB muxing overhead: unknown
frame=34683 fps=338 q=-0.0 Lsize=N/A time=00:24:06.57 bitrate=N/A speed=14.1x    
